# AST/ASF file generated using VICON BodyLanguage
# -----------------------------------------------
:version 1.10
:name VICON
:units
  mass 1.0
  length 0.45
  angle deg
:documentation
   .ast/.asf automatically generated from VICON data using
   VICON BodyBuilder and BodyLanguage model FoxedUp or BRILLIANT.MOD
:root
   order TX TY TZ RX RY RZ
   axis XYZ
   position 0 0 0  
   orientation 0 0 0 
:bonedata
  begin
     id 1 
     name lhipjoint
     direction 0.716712 -0.619771 0.3197 
     length 2.67249 
     axis 0 0 0  XYZ
  end
  begin
     id 2 
     name lfemur
     direction 0.34202 -0.939693 0  
     length 7.04375  
     axis 0 0 20  XYZ
    dof rx ry rz
    limits (-160.0 20.0)
           (-70.0 70.0)
           (-60.0 70.0)
  end
  begin
     id 3 
     name ltibia
     direction 0.34202 -0.939693 0   
     length 8.12233   
     axis 0 0 20   XYZ
    dof rx
    limits (-10.0 170.0)
  end
  begin
     id 4 
     name lfoot
     direction 0.0986665 -0.271084 0.957485   
     length 1.97802   
     axis -90 7.62852e-016 20   XYZ
    dof rx rz
    limits (-45.0 90.0)
           (-70.0 20.0)
  end
  begin
     id 5 
     name ltoes
     direction 1.53569e-011 -4.21962e-011 1   
     length 0.991074   
     axis -90 7.62852e-016 20   XYZ
    dof rx
    limits (-90.0 20.0)
  end
  begin
     id 6 
     name rhipjoint
     direction -0.684484 -0.647907 0.334213   
     length 2.55643  
     axis 0 0 0  XYZ 
  end
  begin
     id 7 
     name rfemur
     direction -0.34202 -0.939693 0   
     length 7.00452   
     axis 0 0 -20   XYZ
    dof rx ry rz
    limits (-160.0 20.0)
           (-70.0 70.0)
           (-70.0 60.0)
  end
  begin
     id 8 
     name rtibia
     direction -0.34202 -0.939693 0   
     length 7.98545   
     axis 0 0 -20   XYZ
    dof rx
    limits (-10.0 170.0)
 end
 begin
     id 9 
     name rfoot
     direction -0.0877828 -0.241181 0.966502   
     length 2.17223  
     axis -90 -7.62852e-016 -20   XYZ
    dof rx rz
    limits (-45.0 90.0)
           (-20.0 70.0)
  end
  begin
     id 10 
     name rtoes
     direction -1.53586e-011 -4.22014e-011 1   
     length 1.0886   
     axis -90 -7.62852e-016 -20   XYZ
    dof rx
    limits (-90.0 20.0)
  end
  begin
     id 11 
     name lowerback
     direction -0.0470064 0.989573 -0.136149   
     length 2.05976   
     axis 0 0 0   XYZ
    dof rx ry rz
    limits (-20.0 45.0)
           (-30.0 30.0)
           (-30.0 30.0)
  end
  begin
     id 12 
     name upperback
     direction -0.00532895 0.998093 0.0615045   
     length 2.02286   
     axis 0 0 0   XYZ
    dof rx ry rz
    limits (-20.0 45.0)
           (-30.0 30.0)
           (-30.0 30.0)
  end
  begin
     id 13 
     name thorax
     direction 0.0171558 0.991502 0.128954   
     length 2.09196   
     axis 0 0 0   XYZ
    dof rx ry rz
    limits (-20.0 45.0)
           (-30.0 30.0)
           (-30.0 30.0)
  end
  begin
     id 14 
     name lowerneck
     direction 0.0221176 0.995362 0.0936194   
     length 1.70234   
     axis 0 0 0   XYZ
    dof rx ry rz
    limits (-20.0 45.0)
           (-30.0 30.0)
           (-30.0 30.0)
  end
  begin
     id 15 
     name upperneck
     direction -0.0237973 0.998511 -0.0490877   
     length 1.66068   
     axis 0 0 0   XYZ
    dof rx ry rz
    limits (-20.0 45.0)
           (-30.0 30.0)
           (-30.0 30.0)
  end
  begin
     id 16
     name head
     direction -0.00980141 0.999531 -0.0289958  
     length 1.82618  
     axis 0 0 0   XYZ
    dof rx ry rz
    limits (-20.0 45.0)
           (-30.0 30.0)
           (-30.0 30.0)
  end
  begin
     id 17 
     name lclavicle
     direction 0.894784 0.445864 -0.0238113  
     length 3.37997  
     axis 0 0 0   XYZ
    dof ry rz
    limits (-20.0 10.0)
           (0.0 20.0)
  end
  begin
     id 18 
     name lhumerus
     direction 1 -4.48975e-011 6.49229e-028   
     length 5.79016   
     axis 180 -30 -90   XYZ
    dof rx ry rz
    limits (-60.0 90.0)
           (-90.0 90.0)
           (-90.0 90.0)
  end
  begin
     id 19
     name lradius
     direction 1 -4.48959e-011 2.80427e-027   
     length 3.48314   
     axis 180 -30 -90   XYZ
    dof rx
    limits (-10.0 170.0)
  end
  begin
     id 20
     name lwrist
     direction 1 -4.48938e-011 5.60449e-029   
     length 1.74157   
     axis 8.48505e-016 90 90   XYZ
    dof ry
    limits (-180.0 0.0)
 end
  begin
     id 21 
     name lhand
     direction 1 -4.49048e-011 1.1209e-028   
     length 0.587065   
     axis -7.15228e-017 90 90   XYZ
    dof rx rz
    limits (-90.0 90.0)
           (-45.0 45.0)
  end
  begin
     id 22 
     name lfingers
     direction 1 -4.49036e-011 2.24179e-028   
     length 0.473307   
     axis -1.43046e-016 90 90   XYZ
    dof rx
    limits (0.0 90.0)
  end
  begin
     id 23
     name lthumb
     direction 0.707107 -6.34878e-011 0.707107   
     length 0.679577   
     axis -90 45 2.85299e-015   XYZ
    dof rx rz
    limits (-45.0 45.0)
           (-45.0 45.0)
  end
  begin
     id 24 
     name rclavicle
     direction -0.952963 0.303049 0.00480459   
     length 3.50503  
     axis 0 0 0   XYZ 
    dof ry rz
    limits (-10.0 20.0)
           (-20.0 0.0)
  end
  begin
     id 25 
     name rhumerus
     direction -1 -4.48973e-011 -1.5431e-027  
     length 5.69822   
     axis 180 30 90   XYZ
    dof rx ry rz
    limits (-90.0 60.0)
           (-90.0 90.0)
           (-90.0 90.0)
  end
  begin
     id 26 
     name rradius
     direction -1 -4.4896e-011 2.11972e-027   
     length 3.58077   
     axis 180 30 90   XYZ
    dof rx
    limits (-10.0 170.0)
  end
  begin
     id 27 
     name rwrist
     direction -1 -4.48943e-011 5.60449e-029   
     length 1.79039   
     axis 8.48505e-016 -90 -90   XYZ
    dof ry
    limits (-180.0 0.0)
  end
  begin
     id 28
     name rhand
     direction -1 -4.49007e-011 1.1209e-028   
     length 0.620156   
     axis -7.15228e-017 -90 -90   XYZ
    dof rx rz
    limits (-90.0 90.0)
           (-45.0 45.0)
  end
  begin
     id 29
     name rfingers
     direction -1 -4.49025e-011 2.24179e-028   
     length 0.499985   
     axis -1.43046e-016 -90 -90   XYZ
    dof rx
    limits (0.0 90.0)
  end
  begin
     id 30
     name rthumb
     direction -0.707107 -6.3481e-011 0.707107   
     length 0.717882   
     axis -90 -45 -2.85299e-015   XYZ
    dof rx rz
    limits (-45.0 45.0)
           (-45.0 45.0)
  end
:hierarchy
  begin
    root lhipjoint rhipjoint lowerback
    lhipjoint lfemur
    lfemur ltibia
    ltibia lfoot
    lfoot ltoes
    rhipjoint rfemur
    rfemur rtibia
    rtibia rfoot
    rfoot rtoes
    lowerback upperback
    upperback thorax
    thorax lowerneck lclavicle rclavicle
    lowerneck upperneck
    upperneck head
    lclavicle lhumerus
    lhumerus lradius
    lradius lwrist
    lwrist lhand lthumb
    lhand lfingers
    rclavicle rhumerus
    rhumerus rradius
    rradius rwrist
    rwrist rhand rthumb
    rhand rfingers
  end

#!OML:ASF H:\Terrain\Patient Classification 1\PaulMetrics\March17Take4\PaulMetrics.ASF
:FULLY-SPECIFIED
:DEGREES
83
root 5.50459 17.2162 -2.77742 5.78843 -15.5969 2.08652
lowerback -1.24769 2.18243 -5.90422
upperback -4.08201 2.77725 -2.34505
thorax -3.68953 1.52931 0.817065
lowerneck -5.50965 6.01264 5.73417
upperneck 13.8059 8.31114 -5.41019
head 5.53155 4.00452 -2.06809
rclavicle -7.77745e-015 -1.43125e-014
rhumerus -47.3784 14.6305 -93.1272
rradius 52.1748
rwrist -8.65621
rhand -18.2347 -32.495
rfingers 7.12502
rthumb 8.04383 -62.3219
lclavicle -7.77745e-015 -1.43125e-014
lhumerus -47.4181 -8.82871 80.7742
lradius 34.2076
lwrist 17.4742
lhand -11.1179 -18.1031
lfingers 7.12502
lthumb 14.9069 11.3405
rfemur 12.4946 2.42297 23.8293
rtibia 17.4806
rfoot -9.62459 -1.88064
rtoes -15.8329
lfemur -37.8512 -2.05664 -25.0029
ltibia 34.9666
lfoot -6.0179 9.83712
ltoes 11.9798
84
root 5.48648 17.2319 -2.61626 5.68131 -15.1587 2.20647
lowerback -1.13335 1.94737 -6.05672
upperback -4.07883 2.45293 -2.34522
thorax -3.73922 1.37367 0.905721
lowerneck -5.44253 6.06729 5.67651
upperneck 13.6868 8.37977 -5.34644
head 5.48198 4.04128 -2.0371
rclavicle 6.60959e-015 7.95139e-016
rhumerus -47.516 14.7538 -93.4903
rradius 51.1754
rwrist -8.12538
rhand -18.7041 -32.1758
rfingers 7.12502
rthumb 7.59072 -62.0196
lclavicle 6.60959e-015 7.95139e-016
lhumerus -47.2486 -8.53322 80.5703
lradius 34.0267
lwrist 17.535
lhand -11.3331 -18.6354
lfingers 7.12502
lthumb 14.6996 10.8234
rfemur 10.9601 1.32229 23.3227
rtibia 21.2329
rfoot -8.61382 -0.966059
rtoes -15.4141
lfemur -37.528 -2.35534 -25.2383
ltibia 35.4939
lfoot -6.29725 9.31948
ltoes 12.8493
85
root 5.46902 17.2247 -2.46472 5.49432 -14.6506 2.17612
lowerback -0.851677 1.69688 -6.11143
upperback -4.00649 2.1004 -2.30624
thorax -3.80483 1.20099 0.978598
lowerneck -5.4896 6.14917 5.64617
upperneck 13.6036 8.46905 -5.21465
head 5.46256 4.09139 -1.98386
rclavicle -2.41772e-014 -1.11319e-014
rhumerus -47.5364 14.8716 -93.7694
rradius 50.0976
rwrist -7.39549
rhand -18.1684 -31.5551
rfingers 7.12502
rthumb 8.10782 -61.3795
lclavicle -2.41772e-014 -1.11319e-014
lhumerus -47.0021 -8.21635 80.3329
lradius 33.9631
lwrist 17.4826
lhand -11.1848 -19.1075
lfingers 7.12502
lthumb 14.8425 10.3409
rfemur 9.6278 0.361402 23.0654
rtibia 24.6533
rfoot -6.92842 -0.509494
rtoes -13.8998
lfemur -37.0533 -2.31627 -25.5039
ltibia 35.9964
lfoot -6.3639 8.62504
ltoes 12.9083
86
root 5.46408 17.2035 -2.30232 5.09984 -14.3703 2.27575
lowerback -0.54101 1.65576 -6.03045
upperback -3.91264 2.02404 -2.38608
thorax -3.87125 1.15867 0.845924
lowerneck -5.60517 6.05836 5.80963
upperneck 13.7656 8.35408 -5.38075
head 5.53997 4.02948 -2.06497
rclavicle -1.88845e-014 1.43125e-014
rhumerus -47.6056 14.3491 -93.7575
rradius 48.8936
rwrist -6.51339
rhand -16.5186 -30.432
rfingers 7.12502
rthumb 9.69982 -60.1887
lclavicle -1.88845e-014 1.43125e-014
lhumerus -46.7212 -8.30139 80.3059
lradius 33.7358
lwrist 17.2745
lhand -10.8743 -19.0613
lfingers 7.12502
lthumb 15.1416 10.3648
rfemur 8.49998 -0.61235 22.4721
rtibia 28.0793
rfoot -5.05333 0.0804646
rtoes -12.4716
lfemur -36.2231 -2.01034 -26.064
ltibia 36.3722
lfoot -6.488 8.12717
ltoes 11.555
87
root 5.45931 17.1983 -2.14045 4.84101 -14.1359 2.22203
lowerback -0.272619 1.67351 -5.84408
upperback -3.90001 2.0324 -2.33405
thorax -4.00436 1.16047 0.787477
lowerneck -5.85949 6.01377 5.7653
upperneck 14.1742 8.31437 -5.43412
head 5.7088 3.99651 -2.06586
rclavicle -2.24627e-014 2.62396e-014
rhumerus -47.8795 13.8536 -93.6612
rradius 47.7938
rwrist -6.40339
rhand -16.2779 -29.5556
rfingers 7.12502
rthumb 9.93208 -59.3013
lclavicle -2.24627e-014 2.62396e-014
lhumerus -46.5446 -8.48307 80.5654
lradius 33.5449
lwrist 17.0697
lhand -10.8433 -18.662
lfingers 7.12502
lthumb 15.1715 10.7619
rfemur 7.22045 -1.43702 22.0403
rtibia 31.5342
rfoot -3.26724 0.705019
rtoes -10.9507
lfemur -35.4436 -1.75792 -26.3767
ltibia 36.5906
lfoot -6.87734 7.73579
ltoes 10.0699
88
root 5.44239 17.2034 -1.9911 4.76561 -13.9196 1.94585
lowerback -0.0111378 1.61432 -5.71404
upperback -3.95831 1.94071 -2.12014
thorax -4.2103 1.1201 0.929857
lowerneck -5.85443 6.10099 5.66075
upperneck 14.4639 8.47802 -5.54805
head 5.80842 4.06046 -2.06915
rclavicle 2.95692e-015 1.98785e-014
rhumerus -48.4073 13.963 -93.8739
rradius 47.1551
rwrist -7.39628
rhand -17.7383 -29.993
rfingers 7.12502
rthumb 8.52291 -59.801
lclavicle 2.95692e-015 1.98785e-014
lhumerus -46.3831 -8.36817 80.7289
lradius 33.4323
lwrist 16.8281
lhand -10.6339 -18.3214
lfingers 7.12502
lthumb 15.3731 11.0871
rfemur 5.72762 -1.96225 22.0322
rtibia 34.8071
rfoot -1.50136 0.772362
rtoes -9.31382
lfemur -34.8773 -1.42028 -26.3409
ltibia 36.6972
lfoot -7.22351 7.2836
ltoes 8.0146
89
root 5.42858 17.2084 -1.83959 4.58213 -13.8277 1.95815
lowerback 0.139546 1.50537 -5.77027
upperback -3.92001 1.78659 -2.05564
thorax -4.25074 1.04695 1.03063
lowerneck -5.34217 6.10929 5.73197
upperneck 14.0846 8.55677 -6.02658
head 5.63006 4.08436 -2.24339
rclavicle -3.19049e-014 9.54166e-015
rhumerus -48.7218 14.2343 -94.3463
rradius 46.4727
rwrist -8.69628
rhand -18.9322 -30.485
rfingers 7.12502
rthumb 7.37055 -60.3366
lclavicle -3.19049e-014 9.54166e-015
lhumerus -46.0099 -8.07302 80.5948
lradius 33.1711
lwrist 16.6495
lhand -10.1272 -18.5713
lfingers 7.12502
lthumb 15.8611 10.799
rfemur 4.29217 -2.39085 21.6955
rtibia 37.9451
rfoot 0.0361757 0.507597
rtoes -7.18398
lfemur -34.1672 -1.09656 -26.5673
ltibia 36.6782
lfoot -7.53848 6.92279
ltoes 6.64032
